# xmcd
#
# Track frame offsets:
#	150
#	14059
#	31669
#	47392
#	60305
#	74584
#	114998
#	135058
#	149647
#	166254
#	181840
#	206162
#	220959
#
# Disc length: 3160 seconds
#
# Revision: 0
# Processed by: cddbd v1.5.1PL2 Copyright (c) Steve Scherf et al.
# Submitted via: audiograbber 1.83.01
#
DISCID=b40c560d
DTITLE=Calexico - Live in Hamburg 2006
DYEAR=2006
DGENRE=Country
TTITLE0=Calexico - Yours And Mine
TTITLE1=Calexico - Cruel
TTITLE2=Calexico - Across The Wire
TTITLE3=Calexico - Sunken Waltz
TTITLE4=Calexico - El Picador
TTITLE5=Calexico - Guns Of Brixton
TTITLE6=Calexico - Letter To Bowie Knife
TTITLE7=Calexico - The Ride Part 2
TTITLE8=Calexico - Alone Again or
TTITLE9=Calexico - Bisbee Blues
TTITLE10=Calexico - Black Heart
TTITLE11=Calexico - Dub Latina
TTITLE12=Calexico - El Burro Song
EXTD=
EXTT0=
EXTT1=
EXTT2=
EXTT3=
EXTT4=
EXTT5=
EXTT6=
EXTT7=
EXTT8=
EXTT9=
EXTT10=
EXTT11=
EXTT12=
PLAYORDER=
